<?xml version="1.0" encoding="UTF-8" standalone="no"?>
<svg id="svg2" xmlns:rdf="http://www.w3.org/1999/02/22-rdf-syntax-ns#" xmlns="http://www.w3.org/2000/svg" height="41.375" width="87" version="1.1" xmlns:cc="http://creativecommons.org/ns#" xmlns:dc="http://purl.org/dc/elements/1.1/" viewBox="0 0 87 41.375">
 <metadata id="metadata10">
  <rdf:RDF>
   <cc:Work rdf:about="">
    <dc:format>image/svg+xml</dc:format>
    <dc:type rdf:resource="http://purl.org/dc/dcmitype/StillImage"/>
    <dc:title/>
   </cc:Work>
  </rdf:RDF>
 </metadata>
 <path id="path4" fill="#180f0a" d="m20.875 0q1.813 3.469 5.5 7.625 6.781 6.688 10.25 8 2.219 1.344 5.125 2.5v5q0 0.313-3.25 1.5-4.656 2.375-10.125 7l-3.125 3.25q-2.75 3.563-4.375 6.5h-0.125q-5.938-6.938-6.625-8 2.344-2.594 5-4.375 4.938-3.219 10.75-5.375 5.531-1.875 6.5-1.875l-0.125-0.125v-0.125l-1.875 0.125h-8.625q-5.313 0-11.5 3.875-6.875-3.688-12.625-4.25 0-0.219-0.875-0.25h-0.75v-0.25q6.844-1.094 9.5-2.25l4.625-2.25h0.25q5.938 3.875 11.875 3.875h10.125v-0.125q-1.594 0-10.5-3.625-4.625-2-9.375-5.875-2.375-2.125-2.375-2.375 4.531-5.781 6.75-8.125zm45.25 0q5.438 6.313 6.625 8.125-3.719 4.188-7.625 6-3.156 2.125-9.375 4.375-4.656 1.5-5.25 1.5v0.125h10.375q5.688 0 11.625-3.875h0.375q3.781 2.313 8.875 3.5 2.094 0.625 5.25 1v0.25h-0.5q-6.469 0.813-11.625 3.375l-2.25 1.125q-6.031-3.875-11.375-3.875h-9l-1.5-0.125-0.125 0.125v0.125q2.625 0.219 11.5 4 4.281 1.844 10 6.75l0.625 0.875q-0.719 1.219-6.625 8-1.875-3.625-6.5-8.625-7.344-6.844-13.5-9l-0.875-0.625v-4.875q0.094-0.25 5.125-2.5 10.375-6.188 15.75-15.75z"/>
</svg>
