<?xml version="1.0" encoding="UTF-8" standalone="no"?>
<svg id="svg2" xmlns:rdf="http://www.w3.org/1999/02/22-rdf-syntax-ns#" xmlns="http://www.w3.org/2000/svg"   version="1.1" xmlns:cc="http://creativecommons.org/ns#" xmlns:dc="http://purl.org/dc/elements/1.1/" viewBox="0 0 35.584 35.584">
 
 <path id="path4" fill="#180f0a" d="m10.688 26.624q1.792 1.92 3.392 3.968t3.072 4.224q0.064 0.128 0.288 0.384t0.352 0.384l0.128-0.128q0.064-0.128 0.256-0.352t0.192-0.288q0.064-0.064 0.256-0.352l0.768-1.152t0.256-0.352q1.216-1.664 2.592-3.264t2.656-3.072l-7.04-7.168zm-10.688-8.832q0.064 0.064 0.224 0.256t0.224 0.192q0.064 0.064 0.384 0.288t0.704 0.448 0.704 0.416 0.384 0.256q1.664 1.216 3.296 2.56t3.04 2.88h0.192l7.104-7.104-7.104-7.104h-0.192q-1.856 1.856-3.872 3.36t-4.192 2.976q-0.256 0.128-0.416 0.288t-0.48 0.288zm19.328 0.192 7.104 7.104h0.128q1.856-2.048 4.064-3.648t4.448-3.2q0.128 0 0.288-0.192t0.224-0.256q-0.832-0.32-1.728-0.992t-1.536-1.184q-0.32-0.256-1.152-0.928t-1.728-1.44-1.728-1.44-1.152-0.928h-0.128zm-8.64-8.832 7.168 7.168 7.04-7.168q-1.984-2.048-3.808-4.384t-3.296-4.768q0 0.064-0.064 0.192t-0.128 0.128q-1.216 1.856-2.4 3.488t-2.656 3.36l-0.384 0.384t-0.544 0.576-0.576 0.608-0.352 0.416z"/>
</svg>
