<?xml version="1.0" encoding="UTF-8" standalone="no"?>
<svg id="svg3336" xmlns:rdf="http://www.w3.org/1999/02/22-rdf-syntax-ns#" xmlns="http://www.w3.org/2000/svg" xml:space="preserve" height="36" viewBox="0 0 1170 36" width="1170" version="1.1" xmlns:cc="http://creativecommons.org/ns#" xmlns:dc="http://purl.org/dc/elements/1.1/"><metadata id="metadata3342"><rdf:RDF><cc:Work rdf:about=""><dc:format>image/svg+xml</dc:format><dc:type rdf:resource="http://purl.org/dc/dcmitype/StillImage"/><dc:title/></cc:Work></rdf:RDF></metadata><g id="g3344" transform="matrix(1.25,0,0,-1.25,145,548)"><path id="path3360" d="m337.6 423.2s-16.287 0.493-35.2-13.6c0 0-28.017 12.8-57.6 12.8h-360.8v3.2h360.8c29.585 0 57.6 12.8 57.6 12.8 18.909-14.091 35.237-13.62 35.237-13.62l-0.04 0.02c1.296 10.94 9.522 12.8 13.6 12.8 4.079 0 12.306-1.86 13.6-12.8 0 0 16.29-0.491 35.2 13.6 0 0 28.018-12.713 57.6-12.8h362.4v-3.2h-362.4c-29.585 0-57.6-12.8-57.6-12.8-18.91 14.093-35.2 13.6-35.2 13.6-1.24-10.446-9.58-12.8-13.6-12.8-4.082 0-12.304 1.861-13.6 12.8z" fill="#180f08"/></g></svg>
