<?xml version="1.0" encoding="utf-8"?>
<!-- Generator: Adobe Illustrator 14.0.0, SVG Export Plug-In . SVG Version: 6.00 Build 43363)  -->
<!DOCTYPE svg PUBLIC "-//W3C//DTD SVG 1.1//EN" "http://www.w3.org/Graphics/SVG/1.1/DTD/svg11.dtd">
<svg version="1.1" id="Laag_1" xmlns="http://www.w3.org/2000/svg" xmlns:xlink="http://www.w3.org/1999/xlink" x="0px" y="0px"
	 width="1017.25px" height="28.927px" viewBox="0 0 1017.25 28.927" enable-background="new 0 0 1017.25 28.927"
	 xml:space="preserve">
<g>
	<path d="M494.572,15.205c0,0-16.13-0.371-35.043,13.722c0,0-28.539-12.96-58.122-12.96L0,16.172v-2.676h401.596
		c29.584,0,57.75-13.496,57.75-13.496c18.908,14.091,35.041,13.722,35.041,13.722h0.017c1.296-10.939,9.643-13.166,13.721-13.166
		c4.079,0,12.424,2.226,13.718,13.166c0,0,16.133,0.369,35.043-13.722c0,0,28.166,13.496,57.748,13.496h402.616v2.676
		l-402.425-0.205c-29.585,0-58.124,12.96-58.124,12.96c-18.91-14.093-35.041-13.722-35.041-13.722
		c-1.24,10.446-9.329,12.979-13.35,12.979c-4.082,0-12.423-2.04-13.72-12.979H494.572z"/>
</g>
</svg>
