<?xml version="1.0" encoding="utf-8"?>
<svg xmlns="http://www.w3.org/2000/svg">
    <symbol id="bullet" viewBox="0 0 35.6 35.6"><path
        d="m10.7 26.6c2.9 2.8 4.8 6.3 7.1 9 2.4-3.1 4.8-6.3 7.1-9l-7-7.2zM0 17.8c3.2 2.6 6.7 4.9 9.2 7.3L16.3 18 9.2 10.9C6.1 13.4 2.9 15.8 0 17.8Zm19.3 0.2 7.1 7.1c2.8-2.8 6.4-5.2 9.2-7.3-3.5-1.6-6.2-4.9-9.2-6.9zm-8.6-8.8 7.2 7.2 7-7.2C22.1 6.3 19.7 3.2 17.8 0 15.4 3.2 13 6.6 10.7 9.2Z"
        fill="#180f0a"/>
    </symbol>
    <symbol id="em" viewBox="0 0 87 41.4"><path
        d="m20.9 0c4.6 8.1 12.7 14.8 20.9 18.1l0 5c-8 4-16.7 11.1-20.9 18.3-2.2-2.6-4.8-5.1-6.7-8 5.9-6 15.2-10.3 22.2-11.6L36.3 21.5c-3.5 0.2-7 0.1-10.5 0.1-3.5 0-7.4 1.3-11.5 3.9C9.9 22.6 4.4 22.3 0 20.8c5.2-0.5 9.5-2.3 14.1-4.5 4 1.9 8.3 3.8 12.1 3.9l10.1 0 0-0.1C28.2 17.7 19.6 14.2 14.1 8.1 17.1 4.3 19.4 1.6 20.9 0Zm45.3 0C69.8 4.2 72 6.9 72.8 8.1 66.1 14.2 58.9 18.1 50.5 20l0 0.1 10.4 0c3.8 0 7.7-1.3 11.6-3.9 4.8 2.2 9.8 4.1 14.5 4.6-5.1 1.1-10.5 2.7-14.5 4.6-4-2.6-7.7-3.9-11.2-3.9-3.5 0-7.1 0-10.6 0 0 0.1 0 0.1 0 0.2 7.8 2 17.7 5.7 22.1 11.6-0.5 0.8-2.7 3.5-6.6 8-4.3-9.2-13.4-13.1-20.9-18.2l0-4.9C53.3 14.5 61.9 7.4 66.1 0Z"
        fill="#180f0a"/>
    </symbol>
    <symbol id="horizontal-rule" viewBox="0 0 936 28.799999">

        <path

            fill="#180f08"
            d="m453.6 13.6s-16.3 0.5-35.2-13.6c0 0-28 12.8-57.6 12.8h-360.8v3.2h360.8c29.6 0 57.6 12.8 57.6 12.8 18.9-14.1 35.2-13.6 35.2-13.6 1.3 10.9 9.5 12.8 13.6 12.8s12.3-1.9 13.6-12.8c0 0 16.3-0.5 35.2 13.6 0 0 28-12.7 57.6-12.8h362.4v-3.2h-362.4c-29.6 0-57.6-12.8-57.6-12.8-18.9 14.1-35.2 13.6-35.2 13.6-1.2-10.4-9.6-12.8-13.6-12.8-4.1 0-12.3 1.9-13.6 12.8z"/>

    </symbol>
    <symbol id="underline" viewBox="0 0 609.70324 40.399996">
        <path  fill="#180f08" d="m-2.825 21.5h247c36.5 0 60.4 18.9 60.4 18.9s23.9-18.9 60.4-18.9h247.5v-2.6h-247.4c-36.6 0-60.5-18.9-60.5-18.9s-23.9 18.9-60.4 18.9h-247v2.6z"/>

    </symbol>
<view id="bullet-view" viewBox="0 0 35.6 35.6" />
</svg>
